<?xml version="1.0" encoding="utf-8"?>
<!-- Generator: Adobe Illustrator 27.5.0, SVG Export Plug-In . SVG Version: 6.00 Build 0)  -->
<svg version="1.1" xmlns="http://www.w3.org/2000/svg" xmlns:xlink="http://www.w3.org/1999/xlink" x="0px" y="0px"
	 viewBox="0 0 500 500" style="enable-background:new 0 0 500 500;" xml:space="preserve">
<g id="BACKGROUND">
	<rect style="fill:#FFFFFF;" width="500" height="500"/>
</g>
<g id="OBJECTS">
	<circle style="fill:#A6E2E2;" cx="223.139" cy="218.757" r="165.632"/>
	<g>
		<g>
			<path style="fill:#FFFFFF;" d="M247.051,280.015c0,0-46.17,56.03-62.5,54.57s-27.52-28.77-27.52-28.77s0.56-0.3,1.51-0.87
				c4.78-2.82,19.48-12.16,22.92-22.13c3.33-5.41,27.55-44.68,34.92-54.7c7.93-10.77,17.26-11.19,17.26-11.19
				c5.26,8.65,11.9,15.23,20.13,16.47c1.13,0.17,2.23,0.28,3.28,0.33c0.5,3.52,3.81,21.48,19.94,30.67c0,0,0.62-12.51,8.89-13.62
				c0,0,8.76-4.8,15.99,2.22c0,0,11.46-12.3,0-46.84l-8.18-7.4l-0.01-0.01l-3.75-8.92c0,0,41.85-2.09,51.53,6.88
				c9.68,8.96,71.6,90.9,71.6,90.9l-90.07,69.93C322.991,357.535,268.381,303.375,247.051,280.015z"/>
			<path style="fill:#D7F2ED;" d="M301.871,206.155c11.46,34.54,0,46.84,0,46.84c-7.23-7.02-15.99-2.22-15.99-2.22l11.68-42.82
				l-3.87-9.2L301.871,206.155z"/>
			<path style="fill:#D7F2ED;" d="M273.771,242.785l12.11,7.99c-8.27,1.11-8.89,13.62-8.89,13.62
				c-16.13-9.19-19.44-27.15-19.94-30.67c1.02,0.05,2.01,0.04,2.95-0.02L273.771,242.785z"/>
			<path style="fill:#2E303D;" d="M246.771,279.565c-5.038-6.218-10.076-12.436-15.115-18.655c-0.405-0.5-1.109,0.211-0.707,0.707
				c5.038,6.218,10.076,12.436,15.115,18.655C246.469,280.772,247.173,280.06,246.771,279.565z"/>
			<path style="fill:#2E303D;" d="M242.356,280.789c-3.567-1.531-7.133-3.062-10.7-4.593c-0.585-0.251-1.095,0.61-0.505,0.863
				c3.567,1.531,7.133,3.062,10.7,4.593C242.436,281.904,242.946,281.043,242.356,280.789z"/>
			<path style="fill:#2E303D;" d="M321.972,309.31c-4.535-7.502-9.07-15.003-13.605-22.505c-4.513-7.466-9.027-14.932-13.54-22.398
				c-2.558-4.231-5.115-8.461-7.673-12.692c-0.333-0.55-1.198-0.048-0.863,0.505c4.535,7.502,9.07,15.003,13.605,22.505
				c4.514,7.466,9.027,14.932,13.54,22.398c2.558,4.231,5.115,8.461,7.673,12.692C321.441,310.365,322.306,309.863,321.972,309.31z"
				/>
		</g>
		<g>
			<path style="fill:#FF9971;" d="M182.191,279.125c-0.05,1.23-0.3,2.46-0.73,3.69c-3.44,9.97-18.14,19.31-22.92,22.13l-1.51-5.53
				c0,0-7.75,1.74-13.42-3.17c-0.15,0.29-0.39,0.55-0.67,0.73c-0.8,0.49-1.81,0.49-2.75,0.41c-4.25-0.38-8.39-2.01-11.76-4.64
				c-1.99-1.55-3.78-3.56-4.33-6.02c-0.53-2.33,0.36-5.1,2.43-6.24c-0.08-0.37-0.13-0.75-0.15-1.13c-0.09-2.17,1.05-4.25,2.6-5.77
				c1.43-1.42,3.2-2.43,4.97-3.39c0.02-0.09,0.04-0.17,0.06-0.25c0.43-1.54,1.53-2.82,2.81-3.77c1.16-0.86,2.48-1.48,3.8-2.08
				c-6.41-3.3-12.56-6.96-11.94-8.6c1.25-3.33,14.38-2.15,27.66,2.5c13.27,4.66,17.61,11.6,17.61,11.6
				C178.081,267.765,182.601,268.125,182.191,279.125z"/>
			<path style="fill:#2E303D;" d="M177.325,280.997c-3.094,1.328-6.189,2.655-9.283,3.983c-1.566,0.672-3.133,1.344-4.699,2.016
				c-1.288,0.552-2.855,1.452-4.3,1.005c-1.556-0.482-1.572-2.224-0.976-3.472c0.596-1.248,1.528-2.387,2.389-3.461
				c1.701-2.12,3.624-4.063,5.722-5.791c2.434-2.005,5.115-3.699,7.955-5.067c0.58-0.279,0.073-1.142-0.505-0.863
				c-5.489,2.645-10.366,6.542-14.133,11.333c-1.469,1.869-4.239,5.165-2.032,7.506c1.006,1.067,2.625,1.072,3.932,0.667
				c1.624-0.503,3.186-1.308,4.745-1.977c3.897-1.672,7.793-3.344,11.69-5.016C178.419,281.608,177.911,280.746,177.325,280.997z"/>
			<path style="fill:#2E303D;" d="M152.932,271.013c-3.88-2.316-7.759-4.633-11.639-6.949c-0.554-0.331-1.057,0.534-0.505,0.864
				l11.639,6.949C152.981,272.208,153.484,271.343,152.932,271.013z"/>
			<path style="fill:#2E303D;" d="M154.742,289.747c-0.107-0.946-0.535-1.82-0.898-2.688c-0.399-0.955-0.798-1.91-1.198-2.866
				c-1.836-4.394-3.673-8.788-5.509-13.182c-0.244-0.585-1.212-0.328-0.964,0.266c1.485,3.553,2.97,7.107,4.455,10.66
				c0.751,1.796,1.501,3.592,2.251,5.388c0.455,1.09,1.857,3.957-0.165,4.421c-1.418,0.325-3.073-1.092-4.149-1.849
				c-1.243-0.875-2.426-1.832-3.545-2.859c-2.224-2.04-4.195-4.352-5.852-6.874c-1.874-2.851-3.341-5.95-4.348-9.21
				c-0.189-0.613-1.155-0.352-0.964,0.266c1.948,6.308,5.591,12.062,10.457,16.525c1.182,1.084,2.436,2.093,3.747,3.016
				c1.245,0.876,2.736,2.044,4.339,2.019C154.035,292.753,154.912,291.254,154.742,289.747z"/>
			<path style="fill:#2E303D;" d="M146.339,290.271c-0.383-0.507-1.252-0.009-0.863,0.505c0.677,0.896,0.745,2.115-0.049,2.97
				c-0.788,0.848-1.957,0.856-2.964,0.412c-1.026-0.452-1.922-1.215-2.796-1.902c-0.911-0.716-1.805-1.452-2.682-2.209
				c-3.482-3.003-6.683-6.322-9.572-9.899c-0.404-0.501-1.108,0.211-0.707,0.707c2.654,3.286,5.571,6.355,8.729,9.16
				c1.538,1.367,3.13,2.679,4.778,3.912c1.448,1.084,3.34,2.117,5.12,1.143C147.061,294.125,147.519,291.833,146.339,290.271z"/>
		</g>
		<g>
			<path style="fill:#FF9971;" d="M297.561,207.955l-11.68,42.82l-12.11-7.99c12.46-17.7,10.03-38.72,10.03-38.72
				s-1.94,28.31-23.8,29.64c-0.94,0.06-1.93,0.07-2.95,0.02c-1.05-0.05-2.15-0.16-3.28-0.33c-8.23-1.24-14.87-7.82-20.13-16.47
				c-10.45-17.18-15.5-42.48-16.87-50.25c12.31-1.61,24.27-6.78,35.95-11.44c3.61-1.44,7.42-2.87,11.29-2.44
				c3.96,0.43,7.51,2.79,10.17,5.76c2.33,2.61,4.07,5.67,5.71,8.76c0.46-2.82,2.37-11.28,8.77-8.84c0.74,0.28,1.4,0.73,1.97,1.3
				c5.31,5.36,3.36,22-2.66,25.39l1.96,4.66l3.75,8.92l0.01,0.01L297.561,207.955z"/>
			<path style="fill:#2E303D;" d="M283.801,204.065c0,0,2.43,21.02-10.03,38.72l-13.77-9.08
				C281.861,232.375,283.801,204.065,283.801,204.065z"/>
			<path style="fill:#2E303D;" d="M289.551,144.654c-0.59-3.76-1.51-7.67-4.02-10.53c-2.249-2.553-6.136-3.91-9.186-2.653
				c0.874-3.357,0.451-7.028-1.273-10.06c-1.779-3.128-4.832-5.489-8.316-6.396c-8.479-2.208-16.223,3.372-23.108,7.445
				c-3.68,2.177-7.521,3.921-11.695,4.908c-4.067,0.962-8.287,1.246-12.447,0.849c-2.115-0.202-4.199-0.602-6.25-1.152
				c-2.047-0.549-4.088-1.183-6.212-1.35c-3.529-0.278-7.124,1.058-8.544,4.507c-1.323,3.213-0.643,6.963,0.644,10.07
				c0.905,2.184,2.186,4.198,3.762,5.951c-3.845-0.4-7.908,1.566-9.834,4.94c-2.18,3.82-1.41,9.08,1.77,12.12
				c2.75,2.63,6.73,3.47,10.52,3.75c3.84,0.29,7.64,0.12,11.41-0.38c12.31-1.61,24.27-6.78,35.95-11.44
				c3.61-1.44,7.42-2.87,11.29-2.44c3.96,0.43,7.51,2.79,10.17,5.76c2.33,2.61,4.07,5.67,5.71,8.76c0.46-2.82,2.37-11.28,8.77-8.84
				c0.74,0.28,1.4,0.73,1.97,1.3C290.701,154.725,290.341,149.654,289.551,144.654z M268.321,120.125
				c-4.78-1.72-10.14-0.6-14.8,1.42c-4.66,2.01-8.92,4.87-13.6,6.82c-8.55,3.54-18.39,3.85-27.13,0.84
				c-3.24-1.12-6.78-2.68-9.93-1.34c-2.442,1.039-3.8,3.6-4.061,6.288c-0.001-0.603,0.029-1.206,0.13-1.801
				c0.271-1.6,0.976-3.128,2.253-4.169c1.383-1.128,3.237-1.516,4.984-1.505c2.061,0.013,4.065,0.596,6.037,1.138
				c1.921,0.528,3.85,0.968,5.826,1.232c7.667,1.024,15.604-0.281,22.525-3.74c7.096-3.547,13.586-9.487,21.902-9.752
				c3.719-0.118,7.299,1.178,9.896,3.878c2.62,2.724,3.839,6.558,3.331,10.301c-0.018,0.129-0.054,0.255-0.076,0.383
				C275.794,125.853,272.468,121.629,268.321,120.125z"/>
			<path style="fill:#FFFFFF;" d="M268.511,204.405c0,0,5.56,10.16-2.92,16.06c-8.48,5.91-14.46-2.48-14.46-2.48L268.511,204.405z"
				/>
			<path style="fill:#F9785A;" d="M239.601,185.995l11.53,22.94c0,0-9.38,5.28-11.53,2.22
				C237.441,208.095,239.601,185.995,239.601,185.995z"/>
			<path style="fill:#2E303D;" d="M235.356,191.174c0.885,2.994-0.084,5.919-2.164,6.533c-2.08,0.614-4.483-1.314-5.367-4.308
				c-0.885-2.994,0.084-5.919,2.164-6.534C232.069,186.251,234.472,188.18,235.356,191.174z"/>
			<path style="fill:#2E303D;" d="M259.689,182.966c0.884,2.994-0.084,5.919-2.164,6.533s-4.483-1.314-5.367-4.308
				c-0.885-2.994,0.084-5.919,2.164-6.533C256.401,178.043,258.804,179.972,259.689,182.966z"/>
			<path style="fill:#2E303D;" d="M230.3,179.06c-1.895,0.452-3.725,1.192-5.427,2.136c-0.916,0.508-1.232,1.894-0.643,2.755
				c0.637,0.931,1.774,1.187,2.755,0.643c0.422-0.234,0.856-0.443,1.293-0.646c1.022-0.436,2.074-0.793,3.155-1.051
				c1.019-0.243,1.691-1.5,1.351-2.485C232.416,179.341,231.392,178.799,230.3,179.06z"/>
			<path style="fill:#2E303D;" d="M258.8,172.334c-0.419-0.361-0.859-0.49-1.407-0.543c-2.422-0.234-4.949,0.142-7.2,1.063
				c-0.506,0.207-0.92,0.466-1.19,0.962c-0.234,0.431-0.324,1.051-0.161,1.522c0.324,0.94,1.448,1.775,2.485,1.351
				c0.931-0.381,1.898-0.647,2.887-0.825c1.08-0.143,2.167-0.178,3.253-0.074c0.482,0.047,1.104-0.293,1.421-0.63
				c0.329-0.35,0.574-0.919,0.543-1.407C259.397,173.231,259.21,172.687,258.8,172.334z"/>
			<path style="fill:#2E303D;" d="M276.076,114.651c-0.254-0.589-1.116-0.081-0.863,0.505c1.859,4.305,2.78,8.968,2.732,13.654
				c-0.007,0.644,0.993,0.644,1,0C278.994,123.937,278.007,119.123,276.076,114.651z"/>
			<path style="fill:#2E303D;" d="M280.656,123.274c-0.427,1.758-0.853,3.517-1.28,5.275c-0.152,0.625,0.812,0.892,0.964,0.266
				c0.427-1.758,0.853-3.517,1.28-5.275C281.772,122.915,280.808,122.648,280.656,123.274z"/>
		</g>
	</g>
	<g>
		<g>
			<polygon style="fill:#8E8E8E;" points="273.86,419.442 273.86,425.832 184.64,425.832 116.63,388.862 116.63,383.112 
				185.94,419.442 			"/>
			<polygon style="fill:#B7B7B7;" points="273.86,419.442 185.94,419.442 116.63,383.112 204.55,383.112 			"/>
			<polygon style="fill:#8E8E8E;" points="195.245,416.648 184.418,416.648 175.883,412.174 186.71,412.174 			"/>
			<polygon style="fill:#8E8E8E;" points="183.803,410.67 172.976,410.67 164.441,406.197 175.268,406.197 			"/>
			<polygon style="fill:#8E8E8E;" points="174.122,404.927 163.295,404.927 154.76,400.453 165.587,400.453 			"/>
			<polygon style="fill:#8E8E8E;" points="162.68,398.949 151.853,398.949 143.318,394.475 154.145,394.475 			"/>
			<polygon style="fill:#8E8E8E;" points="208.312,415.779 197.485,415.779 188.949,411.305 199.776,411.305 			"/>
			<polygon style="fill:#8E8E8E;" points="198.63,410.036 187.803,410.036 179.268,405.562 190.095,405.562 			"/>
			<polygon style="fill:#8E8E8E;" points="187.189,404.058 176.362,404.058 167.827,399.584 178.653,399.584 			"/>
			<polygon style="fill:#8E8E8E;" points="210.674,408.97 199.847,408.97 191.312,404.496 202.139,404.496 			"/>
			<polygon style="fill:#8E8E8E;" points="200.993,403.226 190.166,403.226 181.631,398.752 192.458,398.752 			"/>
			<polygon style="fill:#8E8E8E;" points="189.552,397.249 178.725,397.249 170.189,392.775 181.016,392.775 			"/>
			<polygon style="fill:#8E8E8E;" points="250.557,417.188 239.73,417.188 231.195,412.715 242.022,412.715 			"/>
			<polygon style="fill:#8E8E8E;" points="239.115,411.211 228.288,411.211 219.753,406.737 230.58,406.737 			"/>
			<polygon style="fill:#8E8E8E;" points="229.434,405.467 218.607,405.467 210.072,400.993 220.899,400.993 			"/>
			<polygon style="fill:#8E8E8E;" points="217.993,399.49 207.166,399.49 198.63,395.016 209.457,395.016 			"/>
			<polygon style="fill:#8E8E8E;" points="263.624,416.319 252.797,416.319 244.262,411.846 255.089,411.846 			"/>
			<polygon style="fill:#8E8E8E;" points="253.943,410.576 243.116,410.576 234.581,406.102 245.408,406.102 			"/>
			<polygon style="fill:#8E8E8E;" points="242.501,404.598 231.674,404.598 223.139,400.124 233.966,400.124 			"/>
		</g>
		<g>
			<polygon style="fill:#D5E0E0;" points="330.029,450.146 242.109,450.146 197.218,426.568 285.138,426.568 			"/>
			<polygon style="fill:#27C8CC;" points="269.054,447.315 243.466,447.315 230.401,440.453 255.989,440.453 			"/>
			<g>
				<path style="fill:#B7B7B7;" d="M277.043,446.883c-0.156,0-0.315-0.037-0.464-0.114l-30.341-15.936
					c-0.489-0.257-0.678-0.861-0.421-1.351c0.258-0.489,0.861-0.675,1.351-0.421l30.341,15.935c0.489,0.257,0.678,0.861,0.421,1.351
					C277.75,446.689,277.402,446.883,277.043,446.883z"/>
			</g>
			<g>
				<path style="fill:#B7B7B7;" d="M287.25,446.296c-0.156,0-0.315-0.037-0.464-0.114l-30.341-15.936
					c-0.489-0.257-0.678-0.861-0.421-1.351c0.258-0.489,0.861-0.675,1.351-0.421l30.341,15.936c0.489,0.257,0.678,0.861,0.421,1.351
					C287.957,446.101,287.609,446.296,287.25,446.296z"/>
			</g>
			<g>
				<path style="fill:#B7B7B7;" d="M301.128,447.177c-0.156,0-0.315-0.037-0.464-0.114l-30.341-15.935
					c-0.489-0.257-0.678-0.861-0.421-1.351c0.258-0.489,0.861-0.675,1.35-0.421l30.341,15.936c0.489,0.257,0.678,0.861,0.421,1.351
					C301.835,446.983,301.487,447.177,301.128,447.177z"/>
			</g>
			<g>
				<path style="fill:#B7B7B7;" d="M311.335,446.589c-0.156,0-0.315-0.037-0.464-0.114L280.53,430.54
					c-0.489-0.257-0.678-0.861-0.421-1.351c0.258-0.489,0.861-0.675,1.351-0.421l30.341,15.936c0.489,0.257,0.678,0.861,0.421,1.35
					C312.042,446.395,311.694,446.589,311.335,446.589z"/>
			</g>
		</g>
	</g>
	<g>
		<path style="fill:#A6E2E2;" d="M403.006,181.275l17.111-8.909c6.823,1.788,14.234,1.688,21.435-0.692
			c19.881-6.568,30.673-28.009,24.105-47.89c-6.568-19.881-28.009-30.673-47.89-24.105c-19.87,6.565-30.662,28.006-24.094,47.887
			c1.9,5.75,5.052,10.748,9.046,14.778L403.006,181.275z"/>
		<g>
			<polygon style="fill:#8E8E8E;" points="440.347,161.987 440.347,164.469 438.207,164.469 423.759,164.469 421.535,164.469 
				421.535,157.374 			"/>
			<path style="fill:#B7B7B7;" d="M423.759,164.469h14.448c0,0-0.341,2.989-7.27,2.989
				C424.017,167.458,423.759,164.469,423.759,164.469z"/>
			<polygon style="fill:#B7B7B7;" points="440.347,155.234 440.347,161.987 421.535,157.374 421.535,155.234 422.882,155.234 
				439.425,155.234 			"/>
			<path style="fill:#27C8CC;" d="M453.338,125.48c0,8.174-4.419,15.325-11.007,19.172l-2.906,10.582h-16.542l-2.897-10.582
				c-6.587-3.847-11.016-10.997-11.016-19.172c0-12.252,9.937-22.179,22.189-22.179C443.41,103.3,453.338,113.228,453.338,125.48z"
				/>
			<path style="fill:#FFFFFF;" d="M422.25,130.624c-0.083-0.529-0.887-0.305-0.805,0.222c1.239,7.949,2.479,15.898,3.718,23.848
				c0.083,0.529,0.887,0.305,0.805-0.222C424.729,146.523,423.489,138.574,422.25,130.624z"/>
			<path style="fill:#FFFFFF;" d="M439.843,129.817c-1.338,8.368-2.675,16.737-4.013,25.105c-0.084,0.526,0.721,0.752,0.805,0.222
				c1.338-8.368,2.675-16.737,4.013-25.105C440.732,129.513,439.928,129.287,439.843,129.817z"/>
			<path style="fill:#FFFFFF;" d="M442.101,135.862c-0.627,1.73-2.567,2.899-4.393,2.549c-1.543-0.296-2.721-1.44-3.526-2.758
				c0.753-1.083,1.285-2.342,1.571-3.508c0.302-1.23,0.379-2.514,0.202-3.77c-0.135-0.956-0.584-2.176-1.687-2.325
				c-1.289-0.174-1.951,1.124-2.16,2.187c-0.27,1.372-0.268,2.785-0.023,4.161c0.188,1.058,0.548,2.152,1.073,3.156
				c-0.11,0.136-0.218,0.273-0.336,0.401c-0.715,0.782-1.624,1.508-2.726,1.568c-1.054,0.058-1.788-0.6-2.327-1.416
				c0.557-0.802,0.944-1.75,1.144-2.693c0.293-1.387,0.416-2.93,0.322-4.344c-0.073-1.1-0.835-2.392-2.125-2.022
				c-1.326,0.381-1.548,1.997-1.635,3.159c-0.099,1.329,0.066,2.69,0.473,3.959c0.203,0.635,0.471,1.302,0.815,1.92
				c-0.541,0.626-1.245,1.086-2.156,1.237c-2.513,0.418-3.46-2.154-3.949-4.109c-0.13-0.521-0.936-0.3-0.805,0.222
				c0.543,2.168,1.598,4.773,4.244,4.763c1.274-0.005,2.315-0.565,3.112-1.404c0.203,0.275,0.425,0.531,0.674,0.753
				c0.963,0.857,2.263,1.011,3.447,0.533c0.883-0.356,1.651-0.97,2.297-1.719c0.771,1.172,1.808,2.14,3.126,2.64
				c2.464,0.934,5.269-0.485,6.152-2.922C443.09,135.578,442.283,135.36,442.101,135.862z M426.373,129.616
				c0.077-0.534,0.181-1.173,0.602-1.552c0.51-0.459,1.086-0.159,1.309,0.411c0.206,0.527,0.124,1.165,0.107,1.717
				c-0.018,0.588-0.041,1.176-0.098,1.761c-0.107,1.104-0.4,2.34-0.978,3.354C426.438,133.566,426.096,131.544,426.373,129.616z
				 M433.644,134.651c-0.9-1.993-1.193-4.394-0.657-6.527c0.121-0.484,0.346-1.058,0.872-1.218c0.512-0.155,0.857,0.281,1.043,0.701
				c0.38,0.862,0.358,1.95,0.284,2.87c-0.122,1.525-0.635,3.029-1.47,4.318C433.693,134.746,433.666,134.699,433.644,134.651z"/>
		</g>
	</g>
	<g>
		<path style="fill:#FFFFFF;" d="M189.006,186.88l-17.801,2.76c-4.145,5.119-9.776,9.142-16.51,11.335
			c-18.591,6.053-38.569-4.11-44.622-22.701c-6.053-18.591,4.11-38.568,22.701-44.622c18.581-6.05,38.558,4.113,44.612,22.704
			c1.751,5.377,2.143,10.881,1.367,16.122L189.006,186.88z"/>
		<polygon style="fill:#27C8CC;" points="171.864,155.956 138.717,189.103 120.696,171.071 129.433,162.334 138.717,171.617 
			163.116,147.218 		"/>
	</g>
	<g>
		<g>
			<path style="fill:#FF9971;" d="M379.111,265.677l-22.58,25.34l-5.77,15.57l-1.18-14.6l-2.37-17.79l0.24-3.29l1.35-18.59
				c-3.75,0.35-7.4,0.25-10.83-0.37c-13.5-2.4-23.8-12.71-25.09-35.02c-0.79-13.59,0.89-23.83,3.16-31.21
				c3.33-10.84,7.96-15.49,7.96-15.49s16.89,28.29,39.27,31.42c0,0,4.1-9.67,10.49-6.82c6.4,2.85,6.4,22.09-3.74,24.61
				c-1.33,13.31,0.61,26.95,5.61,39.36C376.591,261.167,377.701,263.547,379.111,265.677z"/>
			<circle style="fill:#F9785A;" cx="357.031" cy="218.757" r="9.05"/>
			<path style="fill:#2E303D;" d="M360.071,250.087l-11.98,11.96l0.71-9.73C352.481,251.987,356.271,251.217,360.071,250.087z"/>
			<path style="fill:#2E303D;" d="M348.091,262.047l-0.64,8.86c0,0-12.98,5.82-18.93,19.57c-1.29-4.18-1.15-8.75-0.22-13.04
				c1.05-4.8,3.03-9.33,5.03-13.8c1.71-3.83,3.45-7.68,4.64-11.69c3.43,0.62,7.08,0.72,10.83,0.37L348.091,262.047z"/>
			<path style="fill:#F9785A;" d="M326.641,205.947l5.15,21.69c0,0-8.97,2.71-10.15,0.55
				C320.461,226.037,326.641,205.947,326.641,205.947z"/>
			<path style="fill:#2E303D;" d="M452.856,270.401c-2.681-10.967-9.19-20.457-16.605-28.786c-6.002-6.743-12.673-12.842-19-19.272
				c-1.981-3.228-3.836-6.529-5.49-9.946c-6.2-12.79-9.45-26.86-15.83-39.55c-6.39-12.7-17.1-24.52-31.14-26.71
				c-20.62-3.22-40.3,15.06-60.81,11.21c-0.81,10.43,3.49,21.15,11.29,28.13l0.77,0.24c2.857-9.3,6.662-14.033,7.688-15.193
				c1.234,6.141,5.499,11.192,9.718,15.653c4.934,5.217,10.488,10.066,17.234,12.758c2.911,1.162,6.005,1.881,9.132,2.008
				c1.138,0.293,2.288,0.54,3.458,0.704c0,0,4.1-9.67,10.49-6.82c6.4,2.85,6.4,22.09-3.74,24.61c-1.33,13.31,0.61,26.95,5.61,39.36
				c0.96,2.37,2.07,4.75,3.48,6.88c0.87,1.33,1.86,2.56,3.01,3.64v0.01c0.41,0.38,0.84,0.75,1.3,1.1
				c8.79,6.71,21.74,2.69,32.09,6.58c9.58,3.6,15.52,13.68,17.08,23.8c1.57,10.12-0.47,20.41-2.49,30.45l0.18,0.06
				c0.2-0.6,0.39-1.21,0.58-1.81c13.435-4.756,21.394-19.322,22.032-33.653C454.826,287.515,454.891,278.723,452.856,270.401z
				 M343.023,193.498c-2.812-2.049-5.376-4.425-7.801-6.915c-2.375-2.438-4.709-4.965-6.66-7.762c-1.469-2.106-2.707-4.4-3.449-6.85
				c3.45,5.223,14.677,20.81,29.502,27.186C350.446,198.088,346.512,196.04,343.023,193.498z M452.81,290.822
				c-0.972-14.487-7.982-28.007-16.068-40.135c-5.508-8.253-11.6-16.161-17.019-24.458c3.855,3.814,7.771,7.571,11.529,11.47
				c7.94,8.238,15.459,17.437,19.282,28.375C453.298,273.985,453.981,282.54,452.81,290.822z"/>
			<path style="fill:#2E303D;" d="M322.869,206.136c0,3.122-1.758,5.652-3.927,5.652c-2.169,0-3.927-2.531-3.927-5.652
				s1.758-5.652,3.927-5.652C321.111,200.484,322.869,203.014,322.869,206.136z"/>
			<path style="fill:#2E303D;" d="M343.22,205.325c0,3.122-1.758,5.653-3.927,5.653s-3.927-2.531-3.927-5.653
				c0-3.122,1.758-5.652,3.927-5.652S343.22,202.203,343.22,205.325z"/>
			<path style="fill:#2E303D;" d="M321.452,193.086c-1.945-0.103-3.91,0.087-5.81,0.511c-1.022,0.228-1.718,1.468-1.397,2.46
				c0.347,1.073,1.365,1.641,2.46,1.397c0.471-0.105,0.947-0.183,1.423-0.254c1.103-0.128,2.213-0.173,3.323-0.114
				c1.047,0.056,2.047-0.96,2-2C323.401,193.954,322.573,193.145,321.452,193.086z"/>
			<path style="fill:#2E303D;" d="M345.38,194.877c-0.3-0.465-0.685-0.713-1.195-0.919c-2.256-0.91-4.786-1.266-7.206-1.021
				c-0.544,0.055-1.015,0.186-1.414,0.586c-0.347,0.347-0.608,0.916-0.586,1.414c0.044,0.993,0.885,2.113,2,2
				c1.001-0.101,2.004-0.083,3.003,0.027c1.076,0.168,2.129,0.443,3.14,0.851c0.449,0.181,1.142,0.032,1.541-0.202
				c0.415-0.243,0.81-0.719,0.919-1.195C345.698,195.906,345.673,195.331,345.38,194.877z"/>
			<path style="fill:#E56B45;" d="M346.896,234.977c1.45,3.583,0.087,7.514-3.045,8.781c-3.131,1.267-6.845-0.61-8.295-4.193
				c-1.45-3.583-0.087-7.514,3.045-8.781C341.733,229.517,345.447,231.395,346.896,234.977z"/>
			<path style="fill:#FFFFFF;" d="M347.981,229.997c0,0,2.99,8.55-5.63,11.4c-7.02,2.32-9.97-2.29-10.76-3.87L347.981,229.997z"/>
		</g>
		<g>
			<path style="fill:#27C8CC;" d="M430.101,331.257l0.18,0.06c-2.78,8.63-5.94,17.29-9.13,25.46v0.01
				c-9.86,25.24-20.02,45.83-20.33,46.44c-9.74-13.45-27.88-22.38-33.77-25.03c-1.21-0.54-1.9-0.82-1.9-0.82l-3.71,11.12
				c0.31,0.29,0.63,0.58,0.93,0.86l-33.63,4.48v-13.86c0,0-0.83-1.8-2.06-4.66c-1.68-3.9-4.11-9.78-6.14-15.7
				c-2.23-6.5-3.98-13.05-3.77-17.08c0.56-10.38,23.3-50.41,23.3-50.41c0.03,5.77,1.31,10.43,1.31,10.43
				c0.1-0.62,0.33-1.28,0.67-1.95c0.1,0.43,3.32,13.71,9.33,23.77l12.8-21.82c0.53,1.37,1.05,2.9,1.52,4.58
				c0,0,14.2-22.96,16.42-37.81c0.41,0.38,0.84,0.75,1.3,1.1c8.79,6.71,21.74,2.69,32.09,6.58c9.58,3.6,15.52,13.68,17.08,23.8
				C434.161,310.927,432.121,321.217,430.101,331.257z"/>
			<path style="fill:#27C8CC;" d="M421.151,356.787l5.99,52.65h-26.98l2.24-3.89c-0.49-0.79-1.02-1.56-1.58-2.32
				C401.131,402.617,411.291,382.027,421.151,356.787z"/>
			<path style="fill:#0CBCBC;" d="M400.821,403.227c0.56,0.76,1.09,1.53,1.58,2.32l-2.24,3.89l-11.29,19.65
				c0,0-3.97-18.67-26.5-39.73c-0.3-0.28-0.62-0.57-0.93-0.86l3.71-11.12c0,0,0.69,0.28,1.9,0.82
				C372.941,380.847,391.081,389.777,400.821,403.227z"/>
			<path style="fill:#FF9971;" d="M388.871,429.087c0,0-25.83,0.46-98.04-3.71c0,0-16.87,11.68-23.72,10.94
				c-6.86-0.74-20.39-13.44-23.73-18.72c-3.33-5.28,5.38-13.16,5.38-13.16s0.09-3.98,5.56-6.3c2.44-1.03,9.13-0.89,15.81-0.42
				c8.32,0.6,16.62,1.72,16.62,1.72l20.09-2.68l21.9-2.92l33.63-4.48C384.901,410.417,388.871,429.087,388.871,429.087z"/>
			<path style="fill:#FFFFFF;" d="M382.121,269.317v0.01c-2.22,14.85-16.42,37.81-16.42,37.81c-0.47-1.68-0.99-3.21-1.52-4.58
				c-3.43-8.88-7.65-11.54-7.65-11.54l22.58-25.34C379.981,267.007,380.971,268.237,382.121,269.317z"/>
			<path style="fill:#D7F2ED;" d="M364.181,302.557l-12.8,21.82c-6.01-10.06-9.23-23.34-9.33-23.77c0-0.01,0-0.01,0-0.01
				c2.01-4.06,7.53-8.61,7.53-8.61l1.18,14.6l5.77-15.57C356.531,291.017,360.751,293.677,364.181,302.557z"/>
			<path style="fill:#FFFFFF;" d="M340.031,355.237h7.87h7.73l0.62,31.96h-23.07l-0.47-31.96H340.031z M350.751,373.317v-15.01
				h-12.54v15.01H350.751z"/>
			<rect x="338.211" y="358.307" style="fill:#27C8CC;" width="12.54" height="15.01"/>
			<path style="fill:#FFFFFF;" d="M347.211,274.197l2.37,17.79c0,0-5.52,4.55-7.53,8.61c0,0,0,0,0,0.01
				c-0.34,0.67-0.57,1.33-0.67,1.95c0,0-1.28-4.66-1.31-10.43C340.041,285.997,341.411,278.597,347.211,274.197z"/>
			<polygon style="fill:#B7B7B7;" points="344.051,350.367 347.901,355.237 340.031,355.237 			"/>
			<path style="fill:#27C8CC;" d="M328.521,290.477c5.95-13.75,18.93-19.57,18.93-19.57l-0.24,3.29c-5.8,4.4-7.17,11.8-7.14,17.93
				c0,0-22.74,40.03-23.3,50.41c-0.21,4.03,1.54,10.58,3.77,17.08l-1.36,0.34l-9.76-4.74l0.31-0.63c0,0,12.42-44.02,17.42-60.42
				C327.541,292.877,328.001,291.647,328.521,290.477z"/>
			<path style="fill:#FF9971;" d="M328.741,379.977v13.86l-21.9,2.92l-66.652-0.138c-11.28,4.85-17.113,5.11-21.473,2.94
				c-1.78,0.12-8.455,0.858-10.235,0.968c-0.17,1.92-0.76,3.63-2.35,3.63c-3.61,0-7.64-8.06-7.64-8.06s-1.11,8.06-4.73,6.12
				c-3.61-1.95-2.64-12.98-2.64-12.98s-8.2,8.04-9.31,5.01c-1.11-3.04,4.31-17.47,17.79-18.72s43.92,4.17,43.92,4.17l60.37-10.1
				l22.79,5.72C327.911,378.177,328.741,379.977,328.741,379.977z"/>
			<path style="fill:#0CBCBC;" d="M326.681,375.317l-22.79-5.72c-1.4-11.21,2.32-15.94,2.32-15.94l3.21,1.56l11.12,4.4l0,0
				C322.571,365.537,325.001,371.417,326.681,375.317z"/>
			<g>
				<path style="fill:#ED694F;" d="M280.806,375.2c1.43,0.98,1.82,2.94,0.95,4.44c-7.05-0.91-8.73-4.12-8.73-4.12
					c0.58-0.98,1.73-2.14,2.86-2.2C277.266,373.26,279.066,374.01,280.806,375.2z"/>
				<path style="fill:#FF9076;" d="M281.756,379.64l-4.26,7.35c-5.61-0.81-8.61-4.52-8.61-4.52l4.14-6.95
					C273.026,375.52,274.706,378.73,281.756,379.64z"/>
				<path style="fill:#27C8CC;" d="M277.496,386.99l-6.64,11.46l-11.34-0.24l9.37-15.74
					C268.886,382.47,271.886,386.18,277.496,386.99z"/>
			</g>
			<path style="fill:#2E303D;" d="M386.755,308.063c-2.745,8.642-5.489,17.285-8.233,25.927c-2.732,8.603-5.464,17.206-8.196,25.808
				c-1.548,4.876-3.097,9.753-4.645,14.629c-0.195,0.615,0.77,0.878,0.964,0.266c2.745-8.642,5.489-17.285,8.233-25.927
				c2.732-8.603,5.464-17.205,8.196-25.808c1.548-4.876,3.097-9.753,4.645-14.629C387.915,307.714,386.949,307.451,386.755,308.063z
				"/>
			<path style="fill:#2E303D;" d="M420.655,358.208c-5.749,11.433-11.032,23.1-15.83,34.964c-1.353,3.346-2.667,6.709-3.943,10.085
				c-0.228,0.603,0.738,0.863,0.964,0.266c4.494-11.89,9.469-23.597,14.918-35.081c1.547-3.261,3.133-6.504,4.754-9.729
				C421.807,358.139,420.944,357.632,420.655,358.208z"/>
			<path style="fill:#2E303D;" d="M338.709,293.286c-4.756,8.816-9.627,17.581-14.243,26.471c-4.165,8.02-7.843,16.625-7.811,25.822
				c0.017,4.781,1.058,9.563,3.43,13.741c0.318,0.56,1.182,0.056,0.864-0.505c-4.317-7.602-3.927-16.864-1.44-24.994
				c1.342-4.385,3.26-8.564,5.346-12.64c2.179-4.257,4.498-8.444,6.768-12.653c2.65-4.913,5.3-9.826,7.95-14.738
				C339.878,293.225,339.015,292.719,338.709,293.286z"/>
			<path style="fill:#2E303D;" d="M364.133,303.724c-5.403,12.221-10.806,24.443-16.209,36.664
				c-1.316,2.978-2.633,5.955-3.949,8.932c-2.023-12.18-2.889-24.548-2.553-36.891c0.1-3.664,0.306-7.324,0.613-10.976
				c0.054-0.641-0.947-0.638-1,0c-1.09,12.987-0.874,26.077,0.663,39.019c0.42,3.542,0.94,7.071,1.552,10.585
				c-0.004,0.092,0.018,0.176,0.057,0.253c0.054,0.162,0.168,0.251,0.305,0.276c0.201,0.079,0.43,0.04,0.544-0.218
				c0.004-0.008,0.007-0.017,0.011-0.025c0.031-0.048,0.058-0.101,0.071-0.16c5.376-12.16,10.751-24.319,16.127-36.479
				c1.544-3.492,3.087-6.984,4.631-10.475C365.254,303.646,364.393,303.136,364.133,303.724z"/>
			<path style="fill:#2E303D;" d="M328.035,394.075c-7.089,0.695-14.178,1.39-21.266,2.085c-0.635,0.062-0.641,1.063,0,1
				c7.089-0.695,14.178-1.39,21.266-2.085C328.67,395.013,328.677,394.013,328.035,394.075z"/>
			<path style="fill:#2E303D;" d="M229.151,395.932c-5.963,1.888-12.121,3.143-18.352,3.697c-0.715,0.064-1.43,0.118-2.146,0.164
				c-0.601,0.038-1.223,0.109-1.819-0.014c-0.456-0.095-0.965-0.312-0.934-0.862c0.039-0.682,0.907-1.32,1.356-1.746
				c2.051-1.944,4.25-3.726,6.578-5.328c2.632-1.812,5.42-3.388,8.323-4.722c0.584-0.269,0.076-1.131-0.505-0.864
				c-5.647,2.596-10.854,6.129-15.34,10.433c-0.841,0.807-1.942,2.002-1.135,3.217c0.579,0.871,1.813,0.97,2.759,0.931
				c3.382-0.14,6.774-0.578,10.107-1.156c3.85-0.668,7.649-1.603,11.374-2.783C230.028,396.703,229.767,395.737,229.151,395.932z"/>
			<path style="fill:#2E303D;" d="M198.999,395.97c-1.315-4.416-1.333-9.115-0.048-13.54c0.18-0.619-0.785-0.884-0.964-0.266
				c-1.332,4.589-1.316,9.492,0.048,14.072C198.218,396.852,199.183,396.59,198.999,395.97z"/>
			<path style="fill:#2E303D;" d="M195.235,380.814c-0.256-0.153-0.521-0.034-0.684,0.179c-1.862,2.432-3.132,5.293-3.692,8.305
				c-0.117,0.629,0.847,0.899,0.964,0.266c0.547-2.94,1.774-5.692,3.591-8.066C195.58,381.282,195.447,380.941,195.235,380.814z"/>
			<path style="fill:#2E303D;" d="M349.174,291.955c-2.888,2.86-5.6,5.893-8.121,9.082c-0.395,0.5,0.308,1.212,0.707,0.707
				c2.521-3.189,5.233-6.222,8.121-9.082C350.339,292.209,349.632,291.502,349.174,291.955z"/>
			<path style="fill:#2E303D;" d="M365.856,306.109c-1.696-5.709-4.644-10.984-8.61-15.425c-0.43-0.481-1.135,0.228-0.707,0.707
				c3.85,4.312,6.707,9.444,8.353,14.984C365.074,306.99,366.04,306.728,365.856,306.109z"/>
			<path style="fill:#2E303D;" d="M351.559,307.42c-0.027-0.641-1.028-0.645-1,0c0.189,4.433,0.379,8.866,0.569,13.299
				c0.027,0.641,1.028,0.645,1,0C351.938,316.286,351.748,311.853,351.559,307.42z"/>
			<path style="fill:#2E303D;" d="M355.178,309.971c-0.276-0.569-1.022-0.88-1.614-0.648c-0.179,0.07-0.339,0.178-0.48,0.308
				c-0.017,0.014-0.039,0.02-0.054,0.038c-0.029,0.033-0.042,0.076-0.068,0.111c-0.047,0.058-0.107,0.105-0.142,0.172
				c-0.019,0.036-0.019,0.077-0.035,0.114c-0.014,0.033-0.02,0.067-0.031,0.101c-0.04,0.123-0.068,0.245-0.072,0.374
				c0,0.014-0.008,0.027-0.008,0.041c0,0.036,0.017,0.068,0.019,0.104c0.007,0.082-0.003,0.164,0.02,0.244
				c0.009,0.032,0.032,0.057,0.043,0.088c0.021,0.059,0.053,0.111,0.081,0.167c0.046,0.089,0.092,0.174,0.157,0.251
				c0.014,0.017,0.02,0.039,0.035,0.056c0.034,0.037,0.083,0.057,0.122,0.089c0.05,0.043,0.088,0.099,0.145,0.134
				c0.022,0.014,0.051,0.014,0.074,0.027c0.064,0.033,0.134,0.049,0.202,0.072c0.083,0.027,0.16,0.064,0.248,0.074
				c0.316,0.046,0.645-0.011,0.904-0.197c0.264-0.19,0.46-0.45,0.548-0.766C355.363,310.601,355.323,310.27,355.178,309.971z"/>
		</g>
	</g>
	<g>
		<polygon style="fill:#8E8E8E;" points="100.131,398.487 97.161,422.967 148.311,419.817 148.311,430.017 73.811,438.357 
			53.611,422.967 76.651,368.437 84.931,348.837 105.501,354.217 102.921,375.527 		"/>
		<polygon style="fill:#8E8E8E;" points="127.461,213.457 162.031,393.597 147.201,393.597 112.451,213.457 		"/>
		<polygon style="fill:#B7B7B7;" points="148.311,419.817 97.161,422.967 100.131,398.487 		"/>
		<polygon style="fill:#B7B7B7;" points="112.451,213.457 147.201,393.597 102.921,375.527 105.501,354.217 84.931,348.837 
			76.651,368.437 72.981,366.877 32.941,213.457 		"/>
		<path style="fill:#2E303D;" d="M139.904,353.569c-1.917-11.278-3.885-22.548-5.903-33.808
			c-2.028-11.317-4.107-22.625-6.237-33.923c-2.119-11.242-4.288-22.475-6.508-33.697c-2.219-11.223-4.489-22.436-6.808-33.638
			c-0.29-1.4-0.581-2.801-0.872-4.2c-0.131-0.63-1.095-0.363-0.964,0.266c2.331,11.2,4.614,22.41,6.846,33.63
			c2.232,11.22,4.414,22.45,6.545,33.69c2.142,11.296,4.234,22.601,6.274,33.916c2.031,11.258,4.011,22.526,5.941,33.802
			c1.93,11.276,3.81,22.561,5.639,33.853c0.229,1.412,0.456,2.823,0.684,4.235c0.102,0.634,1.066,0.365,0.964-0.266
			C143.688,376.134,141.822,364.847,139.904,353.569z"/>
		<path style="fill:#2E303D;" d="M99.325,353.789c-3.042,10.844-6.206,21.654-9.495,32.426
			c-3.277,10.733-6.676,21.428-10.196,32.084c-1.992,6.028-4.023,12.042-6.091,18.044c-0.21,0.61,0.756,0.872,0.964,0.266
			c3.67-10.648,7.22-21.337,10.647-32.066c3.414-10.69,6.706-21.419,9.875-32.184c1.793-6.09,3.546-12.191,5.26-18.303
			C100.463,353.434,99.499,353.169,99.325,353.789z"/>
	</g>
</g>
</svg>
